<?xml version="1.0" encoding="UTF-8"?>
<!DOCTYPE svg PUBLIC "-//W3C//DTD SVG 1.1//EN" "http://www.w3.org/Graphics/SVG/1.1/DTD/svg11.dtd">
<!-- Creator: CorelDRAW 2020 (64-Bit) -->
<svg xmlns="http://www.w3.org/2000/svg" xml:space="preserve" width="254mm" height="254mm" version="1.1" style="shape-rendering:geometricPrecision; text-rendering:geometricPrecision; image-rendering:optimizeQuality; fill-rule:evenodd; clip-rule:evenodd"
viewBox="0 0 25400 25400"
 xmlns:xlink="http://www.w3.org/1999/xlink"
 xmlns:xodm="http://www.corel.com/coreldraw/odm/2003">
 <defs>
  <style type="text/css">
   <![CDATA[
    .fil0 {fill:none}
    .fil1 {fill:#31A753}
    .fil5 {fill:#39B56F}
    .fil2 {fill:#3DB263}
    .fil3 {fill:#6CC18A}
    .fil4 {fill:#89C798}
   ]]>
  </style>
 </defs>
 <g id="Layer_x0020_1">
  <metadata id="CorelCorpID_0Corel-Layer"/>
  <g id="_1974741989280">
   <path class="fil0" d="M23098.12 11771.07c-1827.31,2389.95 -3812.91,4727.21 -5482.01,7169.84l-2425.25 6300.34 -4824.05 0 0 -810.2 3467.39 -5392.66"/>
   <path class="fil0" d="M13834.28 19038.39c2428.92,-2596.14 6017.79,-5403.26 9263.84,-7234.96"/>
  </g>
  <line class="fil0" x1="12259.08" y1="18493.53" x2="11032.1" y2= "17340.84" />
  <line class="fil0" x1="16699.67" y1="14223.27" x2="12259.08" y2= "18493.53" />
  <line class="fil0" x1="16699.67" y1="9960.5" x2="16699.67" y2= "14223.27" />
  <line class="fil0" x1="19665.32" y1="5105.21" x2="16699.67" y2= "9960.5" />
  <line class="fil0" x1="14138.44" y1="9511.2" x2="19965.97" y2= "5131.67" />
  <line class="fil0" x1="14138.44" y1="9511.2" x2="11032.1" y2= "17340.84" />
  <line class="fil0" x1="12967.17" y1="264.58" x2="11036.09" y2= "5031.8" />
  <line class="fil0" x1="11036.09" y1="14762.55" x2="11036.09" y2= "5031.8" />
  <line class="fil0" x1="14164.9" y1="7539.23" x2="11036.09" y2= "14762.55" />
  <line class="fil0" x1="12967.17" y1="4890.48" x2="14164.9" y2= "7539.23" />
  <line class="fil0" x1="12967.17" y1="264.58" x2="12967.17" y2= "4890.48" />
  <line class="fil0" x1="10088.64" y1="9250.57" x2="10088.64" y2= "16249.52" />
  <line class="fil0" x1="7743.01" y1="14709.71" x2="10088.64" y2= "16249.52" />
  <line class="fil0" x1="7743.01" y1="10053.12" x2="7743.01" y2= "14709.71" />
  <line class="fil0" x1="5175.08" y1="4545.52" x2="7743.01" y2= "10053.12" />
  <line class="fil0" x1="10088.64" y1="9250.57" x2="5175.08" y2= "4545.52" />
  <line class="fil0" x1="11188.17" y1="19676.74" x2="8625.5" y2= "24554.51" />
  <line class="fil0" x1="5864.85" y1="18022.63" x2="8625.5" y2= "24554.51" />
  <line class="fil0" x1="1370.3" y1="12380.34" x2="5864.85" y2= "18022.63" />
  <line class="fil0" x1="11188.17" y1="19676.74" x2="1370.3" y2= "12380.34" />
  <path class="fil1" d="M13834.2 19038.39l-3467.39 5392.66 0 810.2 4824.05 0 2425.25 -6300.34c1655.79,-2423.18 3623.14,-4742.67 5438.33,-7112.77 -3234.49,1832.09 -6802.16,4625.74 -9220.24,7210.25z"/>
  <polygon class="fil2" points="8625.5,24554.51 11188.17,19676.74 1370.3,12380.34 5864.85,18022.63 "/>
  <polygon class="fil3" points="7743.01,14709.71 10088.64,16249.52 10088.64,9250.57 5175.08,4545.52 7743.01,10053.12 "/>
  <polygon class="fil4" points="11036.09,5031.8 11036.09,14762.55 14164.9,7539.23 12967.17,4890.48 12967.17,264.58 "/>
  <polygon class="fil5" points="14138.44,9511.2 11032.1,17340.84 12259.08,18493.53 16699.67,14223.27 16699.67,9960.5 19380.3,5571.8 "/>
 </g>
</svg>
